PathFileType	4	(X/Y/Z)	C:\Users\Basilio\Documents\Thesis Gigler\squatting_fais\c3dfiles\075\SLS_front_pre3\markers_experimental.trc
DataRate	CameraRate	NumFrames	NumMarkers	Units	OrigDataRate	OrigDataStartFrame	OrigNumFrames
200.000000	200.000000	4	61	mm	200.000000	1164	1331
Frame#	Time	FHD			LBHD			C7			T10			CLAV			LSHO			LUUPA			LMUPA			LDUPA			LLEP			LMEP			LRAD			LUL			LRFIN			RSHO			RUPA1			RMUPA			RDUPA			RLEP			RMEP			RRAD			RUL			RUFIN			RASI			USACR			LSACR			RSACR			LTHI1			LTHI2			LTHI3			LTHI4			LLFC			LMFC			LTIB1			LTIB2			LTIB3			LTIB4			LLMAL			LMMAL			LHEE			LMT1			LMT2			LMT5			RTHI			RTHI2			RTHI3			RTHI4			RLFC			RMFC			RTIB1			RTIB2			RTIB3			RTIB4			RLMAL			RMMAL			RHEE			RMT1			RMT2			RMT5			LASI			RBHD			
		X1	Y1	Z1	X2	Y2	Z2	X3	Y3	Z3	X4	Y4	Z4	X5	Y5	Z5	X6	Y6	Z6	X7	Y7	Z7	X8	Y8	Z8	X9	Y9	Z9	X10	Y10	Z10	X11	Y11	Z11	X12	Y12	Z12	X13	Y13	Z13	X14	Y14	Z14	X15	Y15	Z15	X16	Y16	Z16	X17	Y17	Z17	X18	Y18	Z18	X19	Y19	Z19	X20	Y20	Z20	X21	Y21	Z21	X22	Y22	Z22	X23	Y23	Z23	X24	Y24	Z24	X25	Y25	Z25	X26	Y26	Z26	X27	Y27	Z27	X28	Y28	Z28	X29	Y29	Z29	X30	Y30	Z30	X31	Y31	Z31	X32	Y32	Z32	X33	Y33	Z33	X34	Y34	Z34	X35	Y35	Z35	X36	Y36	Z36	X37	Y37	Z37	X38	Y38	Z38	X39	Y39	Z39	X40	Y40	Z40	X41	Y41	Z41	X42	Y42	Z42	X43	Y43	Z43	X44	Y44	Z44	X45	Y45	Z45	X46	Y46	Z46	X47	Y47	Z47	X48	Y48	Z48	X49	Y49	Z49	X50	Y50	Z50	X51	Y51	Z51	X52	Y52	Z52	X53	Y53	Z53	X54	Y54	Z54	X55	Y55	Z55	X56	Y56	Z56	X57	Y57	Z57	X58	Y58	Z58	X59	Y59	Z59	X60	Y60	Z60	X61	Y61	Z61	

1165	5.82	-262.7592773437501	1731.915893554688	-890.023864746094	-406.3547973632814	1595.884765625	-928.4500122070315	-425.2461242675782	1485.597778320313	-877.0810546875002	-439.2522583007814	1160.52392578125	-867.221862792969	-280.5838317871094	1426.14453125	-882.0526123046877	-323.2806091308594	1452.8984375	-1040.750610351563	-344.6047668457032	1245.202758789063	-1148.31396484375	-302.5652770996094	1225.157836914063	-1127.779174804688	-328.1976928710938	1177.671875	-1156.68359375	-303.6435546875001	1095.040283203125	-1149.711669921875	-373.1467590332032	1087.790771484375	-1091.786376953125	-203.7581634521485	988.759216308594	-942.1687011718752	-173.7721099853516	940.8834228515627	-992.5581665039065	-140.820068359375	976.7166137695315	-895.1109619140627	-307.9316406250001	1450.006103515625	-717.9699096679689	-317.7388916015626	1244.600463867188	-605.7330932617189	-281.7145080566407	1218.445678710938	-627.1202392578126	-309.0224609375001	1175.210205078125	-594.4857788085939	-291.5006713867188	1106.270385742188	-594.7015991210939	-356.6414489746094	1076.528442382813	-636.6372680664064	-172.2529602050782	997.1433105468752	-819.0921020507815	-158.3094482421875	955.1821289062502	-755.6517333984376	-103.1324996948242	961.1094970703127	-855.0924072265627	-266.4081420898438	999.1137695312502	-749.8786010742189	-433.2563476562501	1054.53125	-869.6257934570315	-440.0670166015626	1022.86474609375	-895.9744262695315	-435.361297607422	1023.828186035156	-839.3100585937502	-331.2141113281251	754.4917602539064	-1085.126342773438	-298.5694580078126	678.0048217773439	-1095.624633789063	-250.264633178711	684.1111450195314	-1084.401123046875	-321.3089599609376	622.7213745117189	-1086.223999023438	-326.0930786132813	513.2738037109376	-1086.163818359375	-270.3456115722657	490.5755310058595	-969.5606079101565	-274.4709167480469	385.5039062500001	-1068.1669921875	-341.2427673339844	354.8778686523438	-1114.552001953125	-299.7290649414063	343.6311645507813	-1099.365478515625	-307.2428588867188	261.9611206054688	-1074.743896484375	-396.3894042968751	130.0186309814453	-1094.338256835938	-362.2627258300782	136.3170776367188	-1016.075134277344	-453.196990966797	102.1615829467774	-1051.448974609375	-248.5318450927735	53.65882110595705	-1031.918701171875	-247.4163208007813	54.53286743164064	-1081.556396484375	-289.1282958984376	42.92817306518555	-1131.832641601563	-321.0820922851563	790.5762939453127	-685.1020507812501	-282.2800598144532	738.3408813476564	-689.7387695312501	-251.8250732421876	744.8440551757814	-702.3900756835939	-309.7873229980469	656.9575805664064	-699.6832885742189	-326.5880737304688	503.5440368652345	-731.0122070312501	-289.9502258300782	497.2898559570314	-855.122741699219	-285.8886718750001	354.5493774414063	-797.5588378906252	-341.9964904785157	279.6791687011719	-741.2026367187501	-305.4062805175782	272.7899475097657	-772.3286132812502	-318.3728637695313	229.0989990234376	-809.318542480469	-395.6500854492189	112.0371246337891	-775.3809814453127	-361.7724914550782	136.3210906982422	-854.9650878906252	-446.7305297851564	92.5529251098633	-836.124206542969	-242.2265930175782	57.82225036621095	-824.9805297851565	-247.2794189453126	56.3310012817383	-782.3930664062502	-289.9053649902344	35.63082504272462	-734.7138061523439	-288.4512939453126	993.110778808594	-1009.995788574219	-340.1645507812501	1636.757080078125	-784.3594970703127	
1166	5.825	-262.7023010253907	1731.866943359375	-891.0552368164065	-406.5218811035157	1595.988647460938	-929.0866699218752	-425.3410949707032	1485.491943359375	-877.6512451171877	-439.1970520019532	1160.437866210938	-867.9031372070315	-280.5677185058594	1426.149536132813	-882.8693847656252	-324.0922546386719	1452.9765625	-1041.832153320313	-345.6300354003907	1245.24609375	-1149.225952148438	-303.4588928222657	1225.243896484375	-1128.86767578125	-329.0649414062501	1177.511596679688	-1157.532592773438	-304.8984375000001	1094.978759765625	-1150.643432617188	-374.2400817871094	1087.733520507813	-1092.501220703125	-204.408187866211	988.5289306640627	-943.0975341796877	-174.3954620361328	940.7442626953127	-993.566345214844	-141.2028961181641	976.614929199219	-896.0650634765627	-307.8361816406251	1450.0107421875	-718.8140869140626	-317.3605041503907	1244.652465820313	-606.3752441406251	-281.5213317871094	1218.471557617188	-627.9788818359376	-308.7141418457032	1175.266235351563	-595.1823730468751	-291.4378662109376	1106.29541015625	-595.4624023437501	-356.6766967773438	1076.566772460938	-637.1729125976564	-172.6585388183594	997.1491699218752	-820.1308593750002	-158.618392944336	955.0940551757815	-756.7568359375001	-103.6668777465821	961.1418457031252	-856.3441162109377	-266.3112487792969	999.1136474609377	-750.8688354492189	-433.1408691406251	1054.43896484375	-870.4534301757815	-439.9418945312501	1022.818969726563	-896.7836914062502	-435.0919494628907	1023.797912597656	-840.1450195312502	-330.8286437988282	754.4241333007814	-1085.650024414063	-297.2075195312501	677.4421386718751	-1095.494506835938	-249.8657379150391	684.0585327148439	-1084.817016601563	-321.1117858886719	622.6402587890626	-1086.697875976563	-325.7070617675782	513.2442016601564	-1086.558715820313	-270.0922241210938	490.5535583496095	-969.830261230469	-274.8473205566407	385.6076049804689	-1068.879516601563	-341.0066528320313	354.7461242675782	-1114.818115234375	-299.5676574707032	343.5053100585938	-1099.57666015625	-307.1176147460938	261.8302612304688	-1074.87060546875	-396.3783264160157	129.9543609619141	-1094.328979492188	-362.2599182128907	136.2641143798828	-1016.090087890625	-453.2360229492189	102.2036743164063	-1051.458129882813	-248.5234680175782	53.64808654785158	-1031.9248046875	-247.5032348632813	54.51662826538087	-1081.60595703125	-289.1017150878907	42.89654159545899	-1131.8564453125	-321.1031494140626	790.6525878906252	-685.7415771484376	-282.2346496582032	738.3666992187501	-690.2130737304689	-251.7941284179688	744.8869628906251	-702.8087158203126	-309.6850891113282	657.0479736328126	-700.1158447265626	-326.3547668457032	503.5130615234376	-731.3714599609376	-289.4402160644532	497.2143554687501	-855.3643798828127	-285.6882934570313	354.4602355957032	-797.7253417968752	-341.8800354003907	279.6890563964844	-741.3785400390626	-305.2711486816407	272.7359619140626	-772.451843261719	-318.2456665039063	229.0608978271485	-809.4338378906252	-395.6336669921876	112.1253433227539	-775.4161376953127	-361.6427917480469	136.4153594970703	-855.060729980469	-446.7001953125001	92.56140899658205	-836.2091064453127	-242.1743774414063	57.8493003845215	-824.9785156250002	-247.3963928222657	56.66052246093751	-782.6265869140627	-289.8967285156251	35.6505241394043	-734.7163085937501	-288.3307800292969	993.0759277343752	-1010.868774414063	-339.6623535156251	1636.808837890625	-785.264343261719	
1167	5.83	-262.6862182617188	1731.850830078125	-892.1785888671877	-406.4537658691407	1596.077880859375	-929.656677246094	-425.4546813964845	1485.411254882813	-878.2290039062502	-439.0608520507814	1160.323120117188	-868.674499511719	-280.6111755371094	1426.12939453125	-883.6699218750002	-323.8224182128907	1452.767944335938	-1042.220825195313	-346.3006591796876	1245.066040039063	-1149.859741210938	-304.1009521484376	1225.176391601563	-1129.728271484375	-329.9581909179688	1177.496826171875	-1158.3798828125	-305.7587585449219	1094.8564453125	-1151.525756835938	-374.8710937500001	1087.651733398438	-1093.126586914063	-204.7928924560547	988.7315673828127	-944.0228271484377	-175.211654663086	940.4829711914065	-994.631530761719	-141.7891693115235	976.514587402344	-897.3189086914065	-307.8056335449219	1449.9912109375	-719.6024780273439	-316.9406127929688	1244.685302734375	-606.9674682617189	-281.3568420410157	1218.468994140625	-628.8116455078126	-308.4264526367188	1175.25927734375	-595.8999023437501	-291.1930847167969	1106.287231445313	-596.2730712890626	-356.6191711425782	1076.58935546875	-637.9237670898439	-172.8444213867188	997.0791625976565	-821.0177001953127	-158.7829132080078	955.1938476562502	-757.6871337890626	-104.1950759887696	961.179382324219	-857.5623779296877	-266.1133728027344	999.3245239257815	-751.5168457031251	-432.949432373047	1054.413208007813	-871.153747558594	-439.7456054687501	1022.707946777344	-897.6340942382815	-434.8995971679689	1023.725219726563	-840.918395996094	-330.3530273437501	754.3353271484376	-1086.18505859375	-296.7201843261719	677.1523437500001	-1095.635009765625	-249.1228637695313	683.5503540039064	-1084.562744140625	-320.3704528808594	622.4496459960939	-1087.279174804688	-325.2748718261719	513.1095581054689	-1086.947631835938	-269.8510437011719	490.4946289062501	-970.0908813476565	-274.6292724609376	385.4220275878907	-1069.151977539063	-340.8562622070313	354.7058410644532	-1115.062744140625	-299.4096374511719	343.3925476074219	-1099.77197265625	-306.9603271484376	261.6797180175782	-1074.960693359375	-396.4132080078126	129.9708251953125	-1094.334228515625	-362.2123718261719	136.2934875488282	-1016.098571777344	-453.2264099121095	102.1913604736328	-1051.456176757813	-248.5200805664063	53.61364746093751	-1031.867553710938	-247.4634094238282	54.46081924438478	-1081.538208007813	-289.1661987304688	42.94653701782227	-1131.955078125	-321.1061096191407	790.6836547851565	-686.3552246093751	-282.1394653320313	738.5128784179689	-690.5806884765626	-251.7110443115235	744.9547729492189	-703.2371215820314	-309.5529174804688	657.0461425781251	-700.4816894531251	-326.1529235839844	503.5785522460939	-731.6807250976564	-288.9068298339844	497.2597961425782	-855.6607666015627	-285.5466918945313	354.3897094726563	-797.8594360351565	-341.7856445312501	279.7470397949219	-741.5420532226564	-305.0999145507813	272.7043762207032	-772.5430908203127	-318.1126098632813	229.0684051513672	-809.5691528320315	-395.5789489746095	112.1834030151367	-775.4744262695315	-361.5017700195313	136.4192810058594	-855.196472167969	-446.7059326171876	92.63005828857423	-836.2208251953127	-242.147445678711	57.82923507690431	-824.9927978515627	-247.2252349853516	56.36891937255861	-782.370056152344	-289.8941955566407	35.64620590209962	-734.7229614257814	-287.8943176269532	993.3526611328127	-1011.501098632813	-339.5022888183594	1635.983032226563	-785.518249511719	
1168	5.835	-262.4920959472657	1731.818481445313	-893.070251464844	-406.5755310058595	1595.880737304688	-930.0084228515627	-425.5135498046876	1485.345825195313	-878.8052978515627	-438.8963012695314	1160.213134765625	-869.328308105469	-280.7013244628907	1426.217407226563	-884.3151855468752	-324.2424316406251	1452.71337890625	-1043.125366210938	-347.1750793457032	1245.051879882813	-1150.706298828125	-304.5658874511719	1225.069702148438	-1130.795532226563	-331.2042846679688	1177.286743164063	-1159.690795898438	-306.5082092285157	1094.672241210938	-1152.318603515625	-375.7022094726563	1087.504272460938	-1093.896118164063	-205.0116729736329	988.7359008789065	-944.9410400390627	-176.5746612548828	940.494812011719	-995.902038574219	-142.2291717529297	976.5889892578127	-898.3724365234377	-307.7634887695313	1450.092163085938	-720.2083129882814	-316.5046081542969	1244.743896484375	-607.5971069335939	-281.0328369140626	1218.443359375	-629.5040283203126	-308.1483764648438	1175.257934570313	-596.5967407226564	-291.0401916503907	1106.304565429688	-597.0928344726564	-356.5090332031251	1076.694091796875	-638.4976806640626	-172.6787719726563	997.2100219726565	-822.301696777344	-158.7883453369141	955.2032470703127	-758.6199951171876	-104.3802871704102	961.2326660156252	-858.5410766601565	-265.9390258789063	999.482360839844	-752.0676879882814	-432.7217712402345	1054.302856445313	-872.0152587890627	-439.5085449218751	1022.663940429688	-898.490417480469	-434.781463623047	1023.562744140625	-841.7237548828127	-329.2575073242188	754.0858764648439	-1086.647338867188	-296.2368774414063	677.2083129882814	-1096.4140625	-248.5929718017579	683.6942138671876	-1085.152465820313	-319.8493957519532	622.3047485351564	-1087.588134765625	-324.7929992675782	512.9561767578126	-1087.197998046875	-269.7138671875001	490.3618774414064	-970.2744750976565	-274.4433593750001	385.345184326172	-1069.307006835938	-340.6080627441407	354.6163330078126	-1115.256958007813	-299.0412292480469	343.3161315917969	-1099.901977539063	-307.9342956542969	261.6593933105469	-1076.023071289063	-396.2476806640626	129.8852844238282	-1094.347412109375	-362.2150573730469	136.2457122802735	-1016.084289550781	-453.2491149902345	102.2513656616211	-1051.432983398438	-248.4774780273438	53.60292816162111	-1031.8564453125	-247.4599914550782	54.43463134765626	-1081.533569335938	-289.1364746093751	42.91269683837891	-1131.901489257813	-320.9594421386719	790.783874511719	-686.7973632812501	-282.0560607910157	738.5477905273439	-690.9011840820314	-251.6529846191407	745.0289306640626	-703.5062866210939	-309.4834289550782	657.0717773437501	-700.8778076171876	-325.8759155273438	503.6014404296876	-731.9917602539064	-288.4613037109376	497.1708984375001	-855.9897460937502	-285.2624816894532	354.3535461425782	-797.9437255859377	-341.6110229492188	279.7404479980469	-741.7726440429689	-304.9426574707032	272.6694335937501	-772.6567382812502	-317.8956909179688	228.9650115966797	-809.6062011718752	-395.5433959960939	112.2398529052735	-775.5792236328127	-361.4903869628907	136.3943176269532	-855.2535400390627	-446.6748962402345	92.63302612304689	-836.2481689453127	-242.159408569336	57.81227874755861	-825.005554199219	-247.3552551269532	56.69820022583009	-782.6423950195315	-289.8553161621094	35.68366622924805	-734.7369384765626	-287.3262329101563	993.6316528320315	-1012.081298828125	-339.1456604003907	1635.933349609375	-786.1176757812502	
